<svg width="1103" height="300" viewBox="0 0 1103 300" fill="none" xmlns="http://www.w3.org/2000/svg">
<mask id="path-1-inside-1_57_134" fill="white">
<path fill-rule="evenodd" clip-rule="evenodd" d="M251.311 2.5349C169.958 -14.7792 22.1289 60.9082 -0.999579 99.9887L-1 139.881C22.1285 100.801 183.669 11.1391 252.745 44.5835C296.847 65.9367 298.779 101.009 300.831 138.278C302.364 166.126 303.965 195.2 323.277 220.693C357.754 266.204 436.817 253.095 491.006 187.301C541.578 125.9 649.495 56.9029 702.825 101.425C722.006 117.439 728.356 141.336 734.77 165.474C743.035 196.576 751.406 228.079 787.472 243.636C810.565 253.854 859.532 262.268 904.556 235.029C943.662 272.394 1010.63 298.712 1103 300.001V262.474C1028.93 261.44 969.843 242.752 929.303 215.69C933.347 211.709 937.306 207.348 941.152 202.576C978.821 155.845 980.215 120.216 972.442 99.0093C979.527 68.6089 969.264 47.9747 959.788 39.3289C938.094 21.3552 889.313 2.91976 867.752 72.9678C862.025 91.5739 861.244 110.649 865.265 129.178C866.08 124.503 867.199 119.841 868.623 115.209C890.209 44.9842 939.046 63.4661 960.767 81.4851C964.847 85.213 969.073 91.1642 972 99.1613C967.932 116.639 958.153 137.337 939.238 160.835C927.476 175.445 914.667 186.223 901.544 194.001C882.83 175.37 870.676 154.174 865.323 132.132C861.751 156.786 866.705 181.456 879.812 204.002C842.097 217.287 805.179 210.057 786.038 201.587C750.012 186.048 741.913 154.516 733.914 123.376C727.69 99.1463 721.526 75.1538 702.317 59.1165C648.987 14.5944 532.427 93.222 489.573 145.253C435.383 211.046 356.321 224.156 321.843 178.644C303.385 154.279 304.86 123.948 306.26 95.1519C308.285 53.4985 310.154 15.0581 251.311 2.5349Z"/>
</mask>
<path fill-rule="evenodd" clip-rule="evenodd" d="M251.311 2.5349C169.958 -14.7792 22.1289 60.9082 -0.999579 99.9887L-1 139.881C22.1285 100.801 183.669 11.1391 252.745 44.5835C296.847 65.9367 298.779 101.009 300.831 138.278C302.364 166.126 303.965 195.2 323.277 220.693C357.754 266.204 436.817 253.095 491.006 187.301C541.578 125.9 649.495 56.9029 702.825 101.425C722.006 117.439 728.356 141.336 734.77 165.474C743.035 196.576 751.406 228.079 787.472 243.636C810.565 253.854 859.532 262.268 904.556 235.029C943.662 272.394 1010.63 298.712 1103 300.001V262.474C1028.93 261.44 969.843 242.752 929.303 215.69C933.347 211.709 937.306 207.348 941.152 202.576C978.821 155.845 980.215 120.216 972.442 99.0093C979.527 68.6089 969.264 47.9747 959.788 39.3289C938.094 21.3552 889.313 2.91976 867.752 72.9678C862.025 91.5739 861.244 110.649 865.265 129.178C866.08 124.503 867.199 119.841 868.623 115.209C890.209 44.9842 939.046 63.4661 960.767 81.4851C964.847 85.213 969.073 91.1642 972 99.1613C967.932 116.639 958.153 137.337 939.238 160.835C927.476 175.445 914.667 186.223 901.544 194.001C882.83 175.37 870.676 154.174 865.323 132.132C861.751 156.786 866.705 181.456 879.812 204.002C842.097 217.287 805.179 210.057 786.038 201.587C750.012 186.048 741.913 154.516 733.914 123.376C727.69 99.1463 721.526 75.1538 702.317 59.1165C648.987 14.5944 532.427 93.222 489.573 145.253C435.383 211.046 356.321 224.156 321.843 178.644C303.385 154.279 304.86 123.948 306.26 95.1519C308.285 53.4985 310.154 15.0581 251.311 2.5349Z" fill="#35581A"/>
<path d="M904.556 235.029L903.565 236.065L904.359 236.824L905.298 236.255L904.556 235.029ZM929.303 215.69L930.308 216.712L931.564 215.476L930.099 214.498L929.303 215.69ZM879.812 204.002L879.335 202.649L877.702 203.225L878.572 204.722L879.812 204.002ZM905.298 236.255C913.847 231.083 922.251 224.643 930.308 216.712L928.297 214.669C920.398 222.443 912.172 228.746 903.814 233.802L905.298 236.255ZM878.572 204.722C884.994 215.769 893.343 226.297 903.565 236.065L905.546 233.992C895.504 224.397 887.328 214.078 881.051 203.281L878.572 204.722ZM973.788 98.516C970.793 90.3438 966.45 84.2069 962.188 80.3185L960.256 82.4365C964.145 85.9852 968.244 91.7207 971.096 99.5027L973.788 98.516ZM901.107 194.676C909.01 202.527 918.164 209.979 928.507 216.883L930.099 214.498C919.898 207.689 910.89 200.353 903.128 192.642L901.107 194.676ZM880.288 205.354C887.608 202.775 894.959 199.432 902.216 195.187L900.769 192.712C893.674 196.862 886.49 200.129 879.335 202.649L880.288 205.354ZM-0.999579 99.9887L-3.46704 98.5284L-3.86676 99.2038L-3.86677 99.9887L-0.999579 99.9887ZM251.311 2.5349L251.908 -0.269483L251.311 2.5349ZM-1 139.881L-3.86719 139.881L-3.8673 150.356L1.46746 141.342L-1 139.881ZM252.745 44.5835L251.495 47.1641L252.745 44.5835ZM300.831 138.278L303.693 138.121L300.831 138.278ZM323.277 220.693L320.992 222.424L323.277 220.693ZM491.006 187.301L488.793 185.479L491.006 187.301ZM702.825 101.425L704.662 99.224V99.2239L702.825 101.425ZM734.77 165.474L737.541 164.737L734.77 165.474ZM787.472 243.636L788.632 241.014L788.62 241.008L788.607 241.003L787.472 243.636ZM904.556 235.029L906.537 232.956L904.95 231.44L903.072 232.576L904.556 235.029ZM1103 300.001L1102.96 302.868L1105.87 302.909V300.001H1103ZM1103 262.474H1105.87V259.646L1103.04 259.607L1103 262.474ZM929.303 215.69L927.291 213.647L924.78 216.119L927.711 218.075L929.303 215.69ZM941.152 202.576L943.384 204.376L941.152 202.576ZM972.442 99.0093L969.65 98.3586L969.456 99.1923L969.75 99.9961L972.442 99.0093ZM959.788 39.3289L961.721 37.2109L961.67 37.1647L961.618 37.121L959.788 39.3289ZM867.752 72.9678L865.012 72.1243L867.752 72.9678ZM865.265 129.178L862.463 129.786L868.089 129.67L865.265 129.178ZM868.623 115.209L871.363 116.051L871.363 116.051L868.623 115.209ZM960.767 81.4851L962.701 79.3684L962.65 79.3222L962.597 79.2784L960.767 81.4851ZM972 99.1613L974.793 99.8112L974.986 98.9786L974.693 98.1758L972 99.1613ZM939.238 160.835L937.004 159.037L939.238 160.835ZM901.544 194.001L899.521 196.033L901.095 197.6L903.006 196.468L901.544 194.001ZM865.323 132.132L868.11 131.455L862.486 131.721L865.323 132.132ZM879.812 204.002L880.764 206.706L884.031 205.555L882.29 202.561L879.812 204.002ZM786.038 201.587L787.198 198.965L787.186 198.96L787.174 198.954L786.038 201.587ZM733.914 123.376L731.136 124.089V124.089L733.914 123.376ZM702.317 59.1165L700.479 61.3175V61.3175L702.317 59.1165ZM489.573 145.253L491.786 147.076V147.076L489.573 145.253ZM321.843 178.644L319.558 180.376L321.843 178.644ZM306.26 95.1519L309.124 95.2911L306.26 95.1519ZM1.46788 101.449C6.90014 92.27 20.0024 80.5103 38.3373 68.2214C56.5575 56.0094 79.5903 43.5064 104.46 32.7452C129.33 21.9838 155.969 12.9941 181.396 7.77051C206.858 2.53968 230.915 1.12551 250.714 5.33928L251.908 -0.269483C231.03 -4.71278 206.101 -3.15881 180.242 2.15343C154.348 7.47289 127.33 16.6012 102.183 27.4824C77.035 38.3639 53.6895 51.0283 35.1446 63.458C16.7145 75.8108 2.66494 88.1672 -3.46704 98.5284L1.46788 101.449ZM1.86719 139.881L1.86761 99.9887L-3.86677 99.9887L-3.86719 139.881L1.86719 139.881ZM253.994 42.0029C235.935 33.2589 212.178 32.6894 186.725 37.0426C161.199 41.4082 133.572 50.7935 107.476 62.4164C81.3695 74.0436 56.6959 87.9542 37.0678 101.437C17.5671 114.833 2.66157 128.065 -3.46746 138.421L1.46746 141.342C6.90267 132.158 20.863 119.526 40.3147 106.164C59.6389 92.8896 84.0044 79.1475 109.809 67.6547C135.623 56.1577 162.778 46.9558 187.692 42.6949C212.678 38.4214 235.017 39.1859 251.495 47.1641L253.994 42.0029ZM303.693 138.121C302.673 119.587 301.676 101.023 295.229 84.4244C288.706 67.6311 276.676 52.9849 253.994 42.0029L251.495 47.1641C272.916 57.5352 283.903 71.1021 289.884 86.5006C295.941 102.094 296.936 119.701 297.968 138.436L303.693 138.121ZM325.562 218.962C306.854 194.265 305.233 166.078 303.693 138.121L297.968 138.436C299.495 166.174 301.076 196.135 320.992 222.424L325.562 218.962ZM488.793 185.479C462.055 217.943 429.306 237.25 399.219 242.919C369.151 248.584 341.985 240.639 325.562 218.962L320.992 222.424C339.047 246.258 368.65 254.514 400.281 248.554C431.891 242.598 465.768 222.454 493.22 189.124L488.793 185.479ZM704.662 99.2239C676.581 75.7801 634.748 82.6298 594.631 102.062C554.269 121.612 514.325 154.48 488.793 185.479L493.22 189.124C518.26 158.721 557.56 126.39 597.131 107.222C636.949 87.9356 675.739 82.5478 700.987 103.626L704.662 99.2239ZM737.541 164.737C731.176 140.781 724.661 115.92 704.662 99.224L700.987 103.626C719.352 118.958 725.537 141.89 731.999 166.21L737.541 164.737ZM788.607 241.003C753.971 226.063 745.847 195.995 737.541 164.737L731.999 166.21C740.222 197.157 748.84 230.095 786.336 246.268L788.607 241.003ZM903.072 232.576C859.065 259.199 811.13 250.969 788.632 241.014L786.311 246.258C809.999 256.739 859.998 265.337 906.04 237.482L903.072 232.576ZM1103.04 297.134C1011.14 295.851 944.962 269.671 906.537 232.956L902.575 237.102C942.361 275.117 1010.11 301.572 1102.96 302.868L1103.04 297.134ZM1100.13 262.474V300.001H1105.87V262.474H1100.13ZM927.711 218.075C968.797 245.501 1028.45 264.3 1102.96 265.341L1103.04 259.607C1029.41 258.579 970.889 240.003 930.895 213.306L927.711 218.075ZM938.92 200.777C935.141 205.465 931.256 209.745 927.291 213.647L931.314 217.734C935.438 213.674 939.47 209.231 943.384 204.376L938.92 200.777ZM969.75 99.9961C977.081 119.997 976.152 154.587 938.92 200.777L943.384 204.376C981.489 157.104 983.349 120.434 975.134 98.0226L969.75 99.9961ZM957.856 41.4469C966.49 49.3256 976.522 68.8668 969.65 98.3586L975.234 99.6601C982.531 68.351 972.037 46.6238 961.721 37.2109L957.856 41.4469ZM870.493 73.8113C881.064 39.467 897.942 27.7275 914.028 25.9908C930.542 24.2078 947.406 32.7938 957.959 41.5368L961.618 37.121C950.476 27.8903 932.102 18.2717 913.412 20.2896C894.294 22.3537 876.002 36.4205 865.012 72.1243L870.493 73.8113ZM868.067 128.57C864.151 110.526 864.909 91.9504 870.493 73.8113L865.012 72.1243C859.141 91.1974 858.337 110.772 862.463 129.786L868.067 128.57ZM868.089 129.67C868.884 125.115 869.974 120.57 871.363 116.051L865.882 114.366C864.423 119.112 863.276 123.89 862.44 128.685L868.089 129.67ZM871.363 116.051C881.948 81.6169 898.848 69.8473 914.953 68.1062C931.486 66.3187 948.37 74.9262 958.936 83.6918L962.597 79.2784C951.443 70.025 933.048 60.382 914.336 62.405C895.196 64.4744 876.884 78.576 865.882 114.366L871.363 116.051ZM958.833 83.6018C962.541 86.9898 966.523 92.5395 969.307 100.147L974.693 98.1758C971.623 89.7888 967.153 83.4362 962.701 79.3684L958.833 83.6018ZM969.207 98.5114C965.257 115.484 955.71 135.799 937.004 159.037L941.471 162.633C960.596 138.875 970.608 117.794 974.793 99.8112L969.207 98.5114ZM937.004 159.037C925.453 173.386 912.903 183.935 900.082 191.535L903.006 196.468C916.431 188.51 929.5 177.504 941.471 162.633L937.004 159.037ZM903.567 191.969C885.185 173.669 873.324 152.93 868.11 131.455L862.537 132.808C868.027 155.419 880.474 177.071 899.521 196.033L903.567 191.969ZM882.29 202.561C869.494 180.548 864.685 156.528 868.161 132.543L862.486 131.721C858.816 157.045 863.917 182.364 877.333 205.443L882.29 202.561ZM784.878 204.209C804.551 212.914 842.232 220.28 880.764 206.706L878.859 201.297C841.962 214.295 805.808 207.199 787.198 198.965L784.878 204.209ZM731.136 124.089C739.095 155.07 747.432 188.057 784.902 204.22L787.174 198.954C752.593 184.038 744.731 153.962 736.691 122.663L731.136 124.089ZM700.479 61.3175C718.86 76.6627 724.865 99.6735 731.136 124.089L736.691 122.663C730.514 98.619 724.193 73.6448 704.154 56.9155L700.479 61.3175ZM491.786 147.076C512.943 121.388 552.472 88.9688 593.299 68.5415C613.704 58.3322 634.264 51.2045 652.891 49.3285C671.495 47.4546 687.922 50.8339 700.479 61.3175L704.154 56.9155C690.047 45.138 671.905 41.65 652.316 43.623C632.749 45.5937 611.492 53.027 590.733 63.4132C549.234 84.1769 509.057 117.086 487.36 143.43L491.786 147.076ZM319.558 180.376C337.613 204.209 367.216 212.465 398.847 206.506C430.457 200.55 464.335 180.405 491.786 147.076L487.36 143.43C460.621 175.894 427.873 195.201 397.785 200.87C367.718 206.536 340.551 198.591 324.129 176.913L319.558 180.376ZM303.396 95.0126C302.007 123.593 300.367 155.043 319.558 180.376L324.129 176.913C306.403 153.515 307.713 124.302 309.124 95.2911L303.396 95.0126ZM250.714 5.33928C279.459 11.4569 292.764 23.7129 298.953 38.9959C305.304 54.6759 304.418 74.0021 303.396 95.0126L309.124 95.2911C310.127 74.6483 311.188 53.9276 304.268 36.8433C297.188 19.3619 282.006 6.13609 251.908 -0.269483L250.714 5.33928Z" fill="#35581A" mask="url(#path-1-inside-1_57_134)"/>
</svg>
